PathFileType	4	(X/Y/Z)	 3.0Hz3min.trc
DataRate	CameraRate	NumFrames	NumMarkers	Units	OrigDataRate	OrigDataStartFrame	OrigNumFrames
200	200	8	43	m	200	250	998
Frame#	Time	C7			LSH			RSH			MAN			RASI			LASI			HIPR			HIPL			RPSI			LPSI			COX			RTHI1			RTHI2			RTHI3			RTHI4			RLKN			RMKN			RSHA1			RSHA2			RSHA3			RSHA4			RLMAL			RMMAL			RHEEL			RMET5			RMET1			RTOE			LTHI1			LTHI2			LTHI3			LTHI4			LLKN			LMKN			LSHA1			LSHA2			LSHA3			LSHA4			LLMAL			LMMAL			LHEEL			LMET5			LMET1			LTOE			
		X1	Y1	Z1	X2	Y2	Z2	X3	Y3	Z3	X4	Y4	Z4	X5	Y5	Z5	X6	Y6	Z6	X7	Y7	Z7	X8	Y8	Z8	X9	Y9	Z9	X10	Y10	Z10	X11	Y11	Z11	X12	Y12	Z12	X13	Y13	Z13	X14	Y14	Z14	X15	Y15	Z15	X16	Y16	Z16	X17	Y17	Z17	X18	Y18	Z18	X19	Y19	Z19	X20	Y20	Z20	X21	Y21	Z21	X22	Y22	Z22	X23	Y23	Z23	X24	Y24	Z24	X25	Y25	Z25	X26	Y26	Z26	X27	Y27	Z27	X28	Y28	Z28	X29	Y29	Z29	X30	Y30	Z30	X31	Y31	Z31	X32	Y32	Z32	X33	Y33	Z33	X34	Y34	Z34	X35	Y35	Z35	X36	Y36	Z36	X37	Y37	Z37	X38	Y38	Z38	X39	Y39	Z39	X40	Y40	Z40	X41	Y41	Z41	X42	Y42	Z42	X43	Y43	Z43	
250	1.2500	-0.249869	1.344906	-0.546447	-0.175835	1.329857	-0.697450	-0.184810	1.319024	-0.386110	-0.127880	1.281167	-0.541068	-0.118661	0.851150	-0.429941	-0.126435	0.854026	-0.662521	-0.182039	0.922688	-0.397286	-0.197639	0.901508	-0.693878	-0.285786	0.897454	-0.488475	-0.291286	0.890611	-0.572723	-0.291553	0.894485	-0.535054	-0.239296	0.676913	-0.362282	-0.220621	0.620701	-0.353099	-0.159302	0.637756	-0.342468	-0.169645	0.698215	-0.351304	-0.196334	0.440087	-0.355483	-0.169664	0.408102	-0.479189	-0.294574	0.325567	-0.346951	-0.305222	0.286034	-0.360826	-0.242145	0.308389	-0.335372	-0.249197	0.270032	-0.343840	-0.322446	0.089172	-0.377324	-0.291774	0.094476	-0.454791	-0.374825	0.080778	-0.427866	-0.239744	0.031469	-0.334221	-0.186491	0.041483	-0.398698	-0.164116	0.033469	-0.391197	-0.241468	0.664083	-0.722224	-0.224031	0.605451	-0.730544	-0.161287	0.619405	-0.740637	-0.171543	0.678256	-0.734807	-0.213408	0.429399	-0.731589	-0.174246	0.404483	-0.615628	-0.314331	0.286170	-0.727401	-0.325353	0.248297	-0.718301	-0.267778	0.233600	-0.733943	-0.263470	0.276603	-0.742751	-0.323952	0.086774	-0.710255	-0.296764	0.100606	-0.632031	-0.379761	0.075777	-0.653047	-0.249878	0.033378	-0.745223	-0.194944	0.045705	-0.682403	-0.170815	0.034654	-0.689160	
251	1.2550	-0.249935	1.343075	-0.546530	-0.175732	1.327548	-0.698038	-0.185133	1.316677	-0.385562	-0.127595	1.278754	-0.541026	-0.118833	0.848583	-0.429442	-0.126647	0.851784	-0.662740	-0.182853	0.919371	-0.396721	-0.198404	0.898362	-0.694116	-0.286541	0.894569	-0.488462	-0.291940	0.888059	-0.572598	-0.292141	0.891814	-0.535067	-0.239650	0.675304	-0.362216	-0.220889	0.619076	-0.353158	-0.159622	0.636212	-0.342310	-0.170027	0.696669	-0.351033	-0.196512	0.438544	-0.355587	-0.169429	0.406400	-0.479054	-0.294536	0.323806	-0.346716	-0.305151	0.284325	-0.360723	-0.241976	0.306630	-0.335452	-0.249044	0.268322	-0.343993	-0.322731	0.088115	-0.377349	-0.292299	0.093365	-0.454965	-0.375362	0.079487	-0.427847	-0.239877	0.031306	-0.334098	-0.186581	0.041517	-0.398717	-0.164142	0.033474	-0.391185	-0.241559	0.662726	-0.722257	-0.224007	0.604139	-0.730659	-0.161292	0.618231	-0.740733	-0.171672	0.677064	-0.734872	-0.213460	0.428182	-0.731572	-0.173336	0.402971	-0.616101	-0.314119	0.284705	-0.727642	-0.325300	0.246901	-0.718694	-0.267581	0.232058	-0.733873	-0.263169	0.275030	-0.742696	-0.324341	0.085749	-0.710171	-0.297299	0.099528	-0.631856	-0.380292	0.074489	-0.653062	-0.249997	0.033285	-0.745340	-0.195106	0.045741	-0.682341	-0.170842	0.034636	-0.689116	
252	1.2600	-0.249948	1.341816	-0.546582	-0.175592	1.325755	-0.698571	-0.185395	1.314827	-0.385095	-0.127314	1.276812	-0.540978	-0.118961	0.846652	-0.428938	-0.126863	0.850202	-0.662981	-0.183667	0.916676	-0.396216	-0.199205	0.895896	-0.694301	-0.287276	0.892399	-0.488438	-0.292629	0.886246	-0.572438	-0.292705	0.889854	-0.535053	-0.239954	0.674325	-0.362268	-0.221173	0.618085	-0.353332	-0.159949	0.635225	-0.342227	-0.170364	0.695697	-0.350802	-0.196630	0.437537	-0.355776	-0.169497	0.405526	-0.479200	-0.294509	0.322641	-0.346639	-0.305086	0.283198	-0.360741	-0.241862	0.305479	-0.335595	-0.248918	0.267201	-0.344205	-0.322898	0.087444	-0.377455	-0.292593	0.092640	-0.455153	-0.375683	0.078617	-0.427909	-0.239970	0.031179	-0.334032	-0.186639	0.041525	-0.398743	-0.164161	0.033474	-0.391180	-0.241517	0.661917	-0.722327	-0.223874	0.603358	-0.730728	-0.161170	0.617546	-0.740740	-0.171646	0.676363	-0.734871	-0.213435	0.427366	-0.731464	-0.172662	0.402241	-0.616259	-0.313918	0.283735	-0.727697	-0.325222	0.245998	-0.718842	-0.267416	0.231006	-0.733705	-0.262919	0.273947	-0.742554	-0.324560	0.085093	-0.710045	-0.297610	0.098782	-0.631666	-0.380597	0.073645	-0.652968	-0.250076	0.033238	-0.745386	-0.195186	0.045759	-0.682291	-0.170818	0.034624	-0.689092	
253	1.2650	-0.249900	1.341148	-0.546596	-0.175419	1.324530	-0.699016	-0.185564	1.313529	-0.384733	-0.127046	1.275414	-0.540919	-0.119061	0.845446	-0.428448	-0.127074	0.849335	-0.663231	-0.184423	0.914764	-0.395803	-0.199987	0.894238	-0.694415	-0.287926	0.891063	-0.488411	-0.293297	0.885210	-0.572272	-0.293207	0.888673	-0.535014	-0.240212	0.673928	-0.362401	-0.221457	0.617666	-0.353582	-0.160266	0.634791	-0.342205	-0.170658	0.695280	-0.350624	-0.196683	0.437091	-0.356012	-0.169857	0.405443	-0.479607	-0.294514	0.322090	-0.346740	-0.305049	0.282673	-0.360874	-0.241824	0.304945	-0.335797	-0.248849	0.266679	-0.344464	-0.322923	0.087117	-0.377605	-0.292680	0.092257	-0.455342	-0.375794	0.078195	-0.428057	-0.240017	0.031130	-0.334032	-0.186649	0.041516	-0.398772	-0.164151	0.033472	-0.391175	-0.241385	0.661572	-0.722459	-0.223676	0.603021	-0.730774	-0.160958	0.617267	-0.740665	-0.171504	0.676080	-0.734829	-0.213296	0.426917	-0.731303	-0.172317	0.402201	-0.616093	-0.313722	0.283274	-0.727595	-0.325112	0.245590	-0.718778	-0.267261	0.230472	-0.733455	-0.262701	0.273396	-0.742340	-0.324609	0.084798	-0.709884	-0.297685	0.098408	-0.631474	-0.380689	0.073247	-0.652784	-0.250110	0.033231	-0.745357	-0.195192	0.045762	-0.682249	-0.170759	0.034614	-0.689088	
254	1.2700	-0.249798	1.341077	-0.546575	-0.175212	1.323908	-0.699349	-0.185632	1.312820	-0.384476	-0.126781	1.274647	-0.540836	-0.119136	0.845029	-0.428007	-0.127266	0.849203	-0.663479	-0.185064	0.913775	-0.395502	-0.200693	0.893518	-0.694458	-0.288444	0.890597	-0.488394	-0.293877	0.884918	-0.572119	-0.293611	0.888268	-0.534952	-0.240446	0.674076	-0.362543	-0.221723	0.617789	-0.353845	-0.160557	0.634880	-0.342234	-0.170909	0.695386	-0.350510	-0.196700	0.437191	-0.356272	-0.170468	0.406068	-0.480214	-0.294569	0.322127	-0.347013	-0.305042	0.282737	-0.361115	-0.241875	0.305010	-0.336047	-0.248842	0.266752	-0.344762	-0.322813	0.087122	-0.377796	-0.292571	0.092210	-0.455529	-0.375705	0.078217	-0.428284	-0.240013	0.031151	-0.334106	-0.186598	0.041501	-0.398790	-0.164103	0.033462	-0.391161	-0.241207	0.661643	-0.722643	-0.223455	0.603087	-0.730802	-0.160704	0.617347	-0.740525	-0.171293	0.676170	-0.734770	-0.213046	0.426850	-0.731112	-0.172324	0.402776	-0.615633	-0.313536	0.283307	-0.727368	-0.324964	0.245663	-0.718532	-0.267110	0.230456	-0.733140	-0.262500	0.273378	-0.742069	-0.324488	0.084850	-0.709706	-0.297542	0.098395	-0.631296	-0.380580	0.073295	-0.652546	-0.250089	0.033273	-0.745273	-0.195125	0.045746	-0.682209	-0.170659	0.034616	-0.689095	
255	1.2750	-0.249663	1.341581	-0.546535	-0.174993	1.323903	-0.699574	-0.185627	1.312719	-0.384305	-0.126554	1.274527	-0.540736	-0.119183	0.845431	-0.427648	-0.127426	0.849778	-0.663706	-0.185540	0.913794	-0.395334	-0.201257	0.893760	-0.694435	-0.288787	0.890936	-0.488384	-0.294287	0.885314	-0.571989	-0.293880	0.888613	-0.534881	-0.240660	0.674730	-0.362662	-0.221965	0.618402	-0.354089	-0.160819	0.635466	-0.342304	-0.171126	0.695985	-0.350459	-0.196755	0.437811	-0.356533	-0.171264	0.407294	-0.480950	-0.294683	0.322717	-0.347432	-0.305095	0.283325	-0.361482	-0.242022	0.305651	-0.336335	-0.248909	0.267379	-0.345085	-0.322637	0.087442	-0.378057	-0.292269	0.092496	-0.455697	-0.375417	0.078673	-0.428576	-0.239965	0.031226	-0.334228	-0.186494	0.041471	-0.398796	-0.164023	0.033446	-0.391140	-0.241021	0.662118	-0.722855	-0.223245	0.603537	-0.730811	-0.160444	0.617786	-0.740334	-0.171056	0.676627	-0.734701	-0.212734	0.427202	-0.730891	-0.172660	0.403872	-0.614922	-0.313380	0.283810	-0.727044	-0.324817	0.246194	-0.718191	-0.266968	0.230937	-0.732789	-0.262337	0.273860	-0.741757	-0.324215	0.085242	-0.709541	-0.297206	0.098736	-0.631158	-0.380290	0.073783	-0.652296	-0.250023	0.033340	-0.745150	-0.194996	0.045719	-0.682186	-0.170531	0.034620	-0.689113	
256	1.2800	-0.249520	1.342607	-0.546479	-0.174786	1.324502	-0.699708	-0.185573	1.313230	-0.384179	-0.126385	1.275119	-0.540630	-0.119195	0.846645	-0.427405	-0.127539	0.851013	-0.663899	-0.185819	0.914827	-0.395307	-0.201642	0.894915	-0.694361	-0.288917	0.892004	-0.488394	-0.294481	0.886318	-0.571899	-0.293994	0.889627	-0.534827	-0.240856	0.675855	-0.362762	-0.222183	0.619490	-0.354316	-0.161050	0.636521	-0.342410	-0.171313	0.697045	-0.350462	-0.196909	0.438918	-0.356794	-0.172154	0.409010	-0.481718	-0.294859	0.323822	-0.347961	-0.305213	0.284400	-0.361949	-0.242275	0.306826	-0.336647	-0.249058	0.268531	-0.345415	-0.322387	0.088104	-0.378361	-0.291772	0.093132	-0.455833	-0.374933	0.079546	-0.428901	-0.239871	0.031346	-0.334403	-0.186356	0.041421	-0.398817	-0.163934	0.033428	-0.391130	-0.240847	0.663027	-0.723064	-0.223065	0.604406	-0.730776	-0.160209	0.618619	-0.740113	-0.170823	0.677474	-0.734610	-0.212436	0.428004	-0.730627	-0.173252	0.405432	-0.614031	-0.313274	0.284749	-0.726653	-0.324712	0.247142	-0.717795	-0.266854	0.231884	-0.732432	-0.262240	0.274806	-0.741422	-0.323813	0.085968	-0.709421	-0.296701	0.099424	-0.631084	-0.379830	0.074693	-0.652074	-0.249918	0.033423	-0.745017	-0.194810	0.045660	-0.682163	-0.170400	0.034617	-0.689139	
257	1.2850	-0.249388	1.344125	-0.546431	-0.174599	1.325686	-0.699764	-0.185514	1.314350	-0.384079	-0.126269	1.276373	-0.540525	-0.119167	0.848608	-0.427302	-0.127584	0.852855	-0.664039	-0.185889	0.916802	-0.395417	-0.201822	0.896883	-0.694250	-0.288831	0.893703	-0.488432	-0.294454	0.887852	-0.571863	-0.293953	0.891225	-0.534796	-0.241037	0.677432	-0.362850	-0.222395	0.621019	-0.354513	-0.161264	0.638015	-0.342542	-0.171475	0.698544	-0.350508	-0.197246	0.440479	-0.357049	-0.173010	0.411112	-0.482447	-0.295128	0.325385	-0.348584	-0.305393	0.285912	-0.362476	-0.242628	0.308495	-0.336973	-0.249292	0.270157	-0.345727	-0.322016	0.089101	-0.378613	-0.291095	0.094112	-0.455915	-0.374259	0.080823	-0.429229	-0.239729	0.031492	-0.334596	-0.186167	0.041357	-0.398804	-0.163818	0.033411	-0.391108	-0.240694	0.664388	-0.723192	-0.222927	0.605718	-0.730711	-0.160018	0.619882	-0.739883	-0.170609	0.678750	-0.734492	-0.212233	0.429281	-0.730310	-0.174024	0.407386	-0.613046	-0.313243	0.286076	-0.726214	-0.324665	0.248456	-0.717369	-0.266781	0.233258	-0.732101	-0.262227	0.276195	-0.741084	-0.323300	0.087004	-0.709378	-0.296051	0.100435	-0.631098	-0.379218	0.076004	-0.651925	-0.249766	0.033524	-0.744875	-0.194591	0.045586	-0.682146	-0.170269	0.034606	-0.689162	
